<svg width="78" height="78" viewBox="0 0 78 78" fill="none" xmlns="http://www.w3.org/2000/svg">
<g clip-path="url(#clip0_338_20)">
<path d="M13.8125 0.974609C6.175 0.974609 0 7.14961 0 14.7871V63.2121C0 70.8496 6.175 77.0246 13.8125 77.0246H64.1875C71.825 77.0246 78 70.8496 78 63.2121V14.7871C78 7.14961 71.825 0.974609 64.1875 0.974609H13.8125ZM59.54 17.6471H66.1375C66.3 17.6146 66.43 17.7446 66.4625 17.8746V48.8796C66.4625 49.4646 66.495 50.1146 66.5275 50.8296C66.5925 51.5121 66.625 52.1621 66.6575 52.7146C66.6575 52.9421 66.56 53.1371 66.3325 53.2346C64.6425 53.9496 62.855 54.4696 61.035 54.7946C59.3775 55.0871 57.72 55.2496 56.03 55.2496C53.625 55.2821 51.22 54.7946 49.0425 53.7871C46.995 52.8446 45.305 51.2846 44.135 49.3671C42.9325 47.3846 42.3475 44.9146 42.3475 41.9571C42.3164 39.5295 42.9474 37.1394 44.1728 35.0436C45.3983 32.9478 47.1717 31.2256 49.3025 30.0621C51.5775 28.7946 54.3075 28.1771 57.525 28.1771C57.6875 28.1771 57.915 28.1771 58.2075 28.2096C58.5 28.2421 58.825 28.2421 59.215 28.2746V18.0046C59.215 17.7771 59.3125 17.6471 59.54 17.6471ZM11.96 20.4746H19.3375C19.5 20.4746 19.6625 20.5071 19.7925 20.5396C19.9225 20.6046 20.02 20.7021 20.1175 20.8321C20.735 22.2296 21.45 23.6271 22.1975 25.0246C22.9775 26.4221 23.725 27.7871 24.5375 29.1521C25.3175 30.5171 26.0325 31.8821 26.715 33.2796H26.78C27.4625 31.8496 28.1775 30.4521 28.8925 29.0871C29.6075 27.7221 30.355 26.3571 31.1025 24.9921C31.85 23.6271 32.565 22.2296 33.28 20.8971C33.3125 20.7671 33.3775 20.6371 33.475 20.5721C33.6045 20.5034 33.7534 20.4805 33.8975 20.5071H40.755C40.9175 20.4746 41.08 20.5721 41.1125 20.7346C41.145 20.7671 41.08 20.8971 41.015 20.9621L31.265 37.0496L41.665 54.1121C41.73 54.2421 41.7625 54.3721 41.73 54.5021C41.6975 54.6321 41.5675 54.5346 41.3725 54.5671H33.93C33.41 54.5671 33.0525 54.5346 32.825 54.2096C32.1425 52.8446 31.4275 51.5121 30.745 50.1471C30.0625 48.8146 29.315 47.4496 28.535 46.0521C27.755 44.6546 26.975 43.2571 26.195 41.8271H26.13C25.4475 43.2246 24.7 44.6221 23.9525 46.0196C23.205 47.4171 22.4575 48.8146 21.7425 50.1796C20.995 51.5446 20.2475 52.9421 19.5 54.2746C19.37 54.5996 19.11 54.6321 18.7525 54.6321H11.6025C11.4725 54.6321 11.375 54.6971 11.375 54.5346C11.3607 54.4738 11.3591 54.4106 11.3703 54.3491C11.3814 54.2876 11.4052 54.229 11.44 54.1771L21.5475 37.6021L11.7 20.9296C11.6025 20.7996 11.57 20.6696 11.635 20.6046C11.7 20.5071 11.83 20.4746 11.96 20.4746ZM57.265 34.2221C55.9975 34.2221 54.73 34.4821 53.5925 35.0671C52.4875 35.6196 51.545 36.4321 50.83 37.4721C50.115 38.5121 49.7575 39.9096 49.7575 41.5996C49.725 42.7371 49.92 43.8746 50.31 44.9471C50.635 45.8246 51.1225 46.6046 51.7725 47.2546C52.39 47.8396 53.1375 48.2946 53.9825 48.5546C54.86 48.8471 55.77 48.9771 56.68 48.9771C57.1675 48.9771 57.6225 48.9446 58.045 48.9121C58.4675 48.9446 58.825 48.8796 59.215 48.7496V34.4496C58.576 34.2983 57.9216 34.2219 57.265 34.2221Z" fill="#1C1C1C"/>
</g>
<defs>
<clipPath id="clip0_338_20">
<rect width="78" height="78" fill="white"/>
</clipPath>
</defs>
</svg>
