<svg width="78" height="78" viewBox="0 0 78 78" fill="none" xmlns="http://www.w3.org/2000/svg">
<g clip-path="url(#clip0_338_16)">
<path d="M58.5 0H19.5C14.3283 0 9.36838 2.05446 5.71142 5.71142C2.05446 9.36838 0 14.3283 0 19.5V58.5C0 63.6717 2.05446 68.6316 5.71142 72.2886C9.36838 75.9455 14.3283 78 19.5 78H58.5C63.6717 78 68.6316 75.9455 72.2886 72.2886C75.9455 68.6316 78 63.6717 78 58.5V19.5C78 14.3283 75.9455 9.36838 72.2886 5.71142C68.6316 2.05446 63.6717 0 58.5 0ZM48.711 57.642H42.627C42.3843 57.6757 42.1381 57.6128 41.9412 57.467C41.7444 57.3212 41.6125 57.104 41.574 56.862C40.833 54.678 40.053 52.494 39.312 50.271C39.2887 50.1316 39.2375 49.9984 39.1616 49.8792C39.0856 49.76 38.9865 49.6573 38.87 49.5772C38.7536 49.4972 38.6222 49.4414 38.4837 49.4132C38.3452 49.3849 38.2025 49.3849 38.064 49.413H27.69C27.5459 49.379 27.3963 49.3758 27.2509 49.4035C27.1055 49.4313 26.9676 49.4893 26.8461 49.574C26.7247 49.6586 26.6224 49.7679 26.5461 49.8947C26.4697 50.0216 26.421 50.1631 26.403 50.31C25.74 52.494 24.999 54.6 24.336 56.784C24.3175 56.9218 24.2708 57.0543 24.1988 57.1733C24.1269 57.2923 24.0313 57.3952 23.9179 57.4757C23.8045 57.5561 23.6758 57.6124 23.5397 57.641C23.4037 57.6697 23.2632 57.67 23.127 57.642H17.784C16.848 57.642 16.77 57.642 17.082 56.667L25.506 32.37C26.286 30.147 27.066 27.924 27.768 25.701C27.9665 25.043 28.0716 24.3603 28.08 23.673C28.08 22.854 28.392 22.659 29.133 22.698H36.582C37.128 22.698 37.401 22.698 37.596 23.439L47.19 50.466C47.931 52.572 48.672 54.639 49.374 56.706C49.686 57.564 49.647 57.642 48.711 57.642ZM60.645 56.979C60.645 57.642 60.372 57.837 59.748 57.837H54.132C53.352 57.837 53.157 57.525 53.157 56.823V32.331C53.157 31.551 53.391 31.239 54.21 31.278H59.709C60.333 31.278 60.645 31.278 60.645 32.136C60.6177 40.404 60.6177 48.6837 60.645 56.979ZM56.745 28.509C56.1862 28.5445 55.6263 28.4592 55.1033 28.259C54.5804 28.0588 54.1067 27.7483 53.7145 27.3487C53.3223 26.949 53.0207 26.4696 52.8303 25.9431C52.6399 25.4165 52.5651 24.8551 52.611 24.297C52.6165 23.7425 52.7324 23.1946 52.9518 22.6853C53.1713 22.176 53.49 21.7155 53.8894 21.3307C54.2887 20.9459 54.7607 20.6444 55.2777 20.4439C55.7948 20.2435 56.3466 20.148 56.901 20.163C57.4405 20.1613 57.9745 20.2715 58.4692 20.4867C58.9639 20.7019 59.4086 21.0174 59.7752 21.4133C60.1417 21.8092 60.4221 22.2768 60.5987 22.7866C60.7753 23.2963 60.8442 23.8372 60.801 24.375C60.833 24.9065 60.7557 25.4389 60.5741 25.9394C60.3924 26.4399 60.1102 26.898 59.7449 27.2853C59.3795 27.6726 58.9387 27.981 58.4496 28.1914C57.9605 28.4019 57.4335 28.51 56.901 28.509H56.745Z" fill="#1C1C1C"/>
<path d="M36.9711 42.5879H28.7031C30.1071 38.0639 31.4331 33.6179 32.6031 29.1719C34.1631 33.6179 35.5671 38.0639 36.9711 42.5879Z" fill="#1C1C1C"/>
</g>
<defs>
<clipPath id="clip0_338_16">
<rect width="78" height="78" fill="white"/>
</clipPath>
</defs>
</svg>
