<svg width="78" height="78" viewBox="0 0 78 78" fill="none" xmlns="http://www.w3.org/2000/svg">
<rect width="78" height="78" rx="18" fill="#1C1C1C"/>
<path d="M20.8851 27L15 23.7253L37.9008 10.5007C39.3337 9.59388 40.7154 10.1229 41.2272 10.5007L64 23.7253L57.4752 27C43.0439 17.1256 27.0688 22.8857 20.8851 27Z" fill="#CCC0EB"/>
<path d="M59.2655 29.922L64.9754 26.5554L65.1551 52.5878C65.2348 54.2562 64.1011 55.166 63.5243 55.4124L40.9524 68.1644L41.3267 60.993C56.9192 53.6559 59.7828 37.2219 59.2655 29.922Z" fill="#CCC0EB"/>
<path d="M38.2877 61.1631L38.464 67.7892L15.6084 55.3256C14.1106 54.5865 13.8644 53.1538 13.9286 52.5299L13.7185 26.6058L19.8094 30.4099C18.6671 47.6045 31.6523 58.0764 38.2877 61.1631Z" fill="#CCC0EB"/>
<circle cx="39.5" cy="39.5" r="13.5" fill="#CCC0EB"/>
</svg>
