<svg width="78" height="78" viewBox="0 0 78 78" fill="none" xmlns="http://www.w3.org/2000/svg">
<g clip-path="url(#clip0_338_22)">
<path d="M32.0125 27.3646C30.81 26.8771 29.51 26.6821 28.1775 26.7146C27.3325 26.7146 26.585 26.7146 25.9675 26.7471C25.3175 26.7146 24.8625 26.7471 24.635 26.7796V37.6996C25.09 37.7321 25.5125 37.7646 25.9025 37.7646H27.625C28.8925 37.7646 30.16 37.5696 31.3625 37.1796C32.4025 36.8871 33.3125 36.2696 34.0275 35.4571C34.71 34.6446 35.035 33.5396 35.035 32.1096C35.0675 31.1021 34.8075 30.0946 34.2875 29.2171C33.7456 28.3733 32.9486 27.7243 32.0125 27.3646ZM64.1875 0.974609H13.8125C6.175 0.974609 0 7.14961 0 14.7871V63.2089C0 70.8464 6.175 77.0214 13.8125 77.0214H64.1875C71.825 77.0214 78 70.8464 78 63.2089V14.7871C78 7.14961 71.825 0.974609 64.1875 0.974609ZM40.1668 38.8371C38.87 40.6571 37.05 42.0221 34.9375 42.8021C32.7275 43.6146 30.29 43.9071 27.625 43.9071C26.845 43.9071 26.325 43.9071 26 43.8746C25.675 43.8421 25.22 43.8421 24.6025 43.8421V54.2714C24.635 54.4989 24.4725 54.6971 24.245 54.7296H17.94C17.68 54.7296 17.55 54.5964 17.55 54.3039V20.8646C17.55 20.6371 17.6475 20.5071 17.875 20.5071C18.4275 20.5071 18.9475 20.5071 19.695 20.4746C20.475 20.4421 21.2875 20.4421 22.165 20.4096C23.0425 20.3771 23.985 20.3771 24.9925 20.3446C26 20.3121 26.975 20.3121 27.95 20.3121C30.615 20.3121 32.825 20.6371 34.645 21.3196C36.27 21.8721 37.765 22.7821 39 23.9846C40.04 25.0246 40.8525 26.2921 41.3725 27.6896C41.8567 29.0546 42.1167 30.4521 42.1167 31.9146C42.1211 34.7096 41.4711 37.0171 40.1668 38.8371ZM63.2125 51.4796C62.3025 52.7796 61.0317 53.7839 59.5725 54.3754C57.98 55.0546 56.03 55.4089 53.6867 55.4089C52.195 55.4089 50.7293 55.2821 49.27 54.9896C48.1325 54.7914 46.995 54.4371 45.955 53.9496C45.7275 53.8229 45.5617 53.5954 45.5942 53.3354V47.6804C45.5942 47.5861 45.63 47.4529 45.7275 47.3879C45.8218 47.3229 45.9225 47.3554 46.02 47.4204C47.2875 48.1679 48.62 48.6911 50.05 49.0129C51.2817 49.3379 52.5817 49.5004 53.885 49.5004C55.12 49.5004 55.9975 49.3346 56.5825 49.0421C57.1025 48.8146 57.46 48.2621 57.46 47.6771C57.46 47.2189 57.2 46.7996 56.68 46.3771C56.16 45.9579 55.0908 45.4704 53.4983 44.8464C51.8408 44.2614 50.3165 43.4814 48.8833 42.5096C47.8645 41.7832 47.0197 40.8397 46.41 39.7471C45.8937 38.7187 45.6381 37.5792 45.6657 36.4289C45.6657 35.0314 46.0558 33.6989 46.774 32.4964C47.5865 31.1964 48.7858 30.1564 50.1833 29.5064C51.7075 28.7296 53.625 28.3721 55.9325 28.3721C57.265 28.3721 58.63 28.4696 59.9625 28.6646C60.9375 28.7946 61.88 29.0546 62.7575 29.4121C62.8843 29.4446 63.0175 29.5746 63.0825 29.7046C63.115 29.8346 63.1475 29.9646 63.1475 30.0946V35.3921C63.1475 35.5221 63.0825 35.6521 62.985 35.7171C62.6925 35.7821 62.53 35.7821 62.4 35.7171C61.425 35.1971 60.385 34.8396 59.28 34.6121C58.0775 34.3521 56.875 34.1896 55.64 34.1896C54.99 34.1571 54.3075 34.2546 53.6867 34.4171C53.2675 34.5146 52.9067 34.7421 52.6792 35.0671C52.5168 35.3271 52.4193 35.6521 52.4193 35.9446C52.4193 36.2371 52.5492 36.5296 52.7475 36.7896C53.04 37.1471 53.4268 37.4396 53.8525 37.6671C54.5968 38.0571 55.38 38.4146 56.1567 38.7396C57.915 39.3246 59.605 40.1371 61.165 41.1121C62.2375 41.7914 63.115 42.7046 63.7292 43.8096C64.2492 44.8431 64.5093 45.9871 64.4768 47.1539C64.5125 48.6846 64.0575 50.2089 63.2125 51.4796Z" fill="#1C1C1C"/>
</g>
<defs>
<clipPath id="clip0_338_22">
<rect width="78" height="78" fill="white"/>
</clipPath>
</defs>
</svg>
