<svg width="78" height="78" viewBox="0 0 78 78" fill="none" xmlns="http://www.w3.org/2000/svg">
<path d="M13.8125 0.975098C6.175 0.975098 0 7.1501 0 14.7876V63.2126C0 70.8501 6.175 77.0251 13.8125 77.0251H64.1875C71.825 77.0251 78 70.8501 78 63.2126V14.7876C78 7.1501 71.825 0.975098 64.1875 0.975098H13.8125ZM59.54 17.6476H66.1375C66.3 17.6151 66.43 17.7451 66.4625 17.8751V48.8801C66.4625 49.4651 66.495 50.1151 66.5275 50.8301C66.5925 51.5126 66.625 52.1626 66.6575 52.7151C66.6575 52.9426 66.56 53.1376 66.3325 53.2351C64.6425 53.9501 62.855 54.4701 61.035 54.7951C59.3775 55.0876 57.72 55.2501 56.03 55.2501C53.625 55.2826 51.22 54.7951 49.0425 53.7876C46.995 52.8451 45.305 51.2851 44.135 49.3676C42.9325 47.3851 42.3475 44.9151 42.3475 41.9576C42.3164 39.53 42.9474 37.1399 44.1728 35.0441C45.3983 32.9483 47.1717 31.2261 49.3025 30.0626C51.5775 28.7951 54.3075 28.1776 57.525 28.1776C57.6875 28.1776 57.915 28.1776 58.2075 28.2101C58.5 28.2426 58.825 28.2426 59.215 28.2751V18.0051C59.215 17.7776 59.3125 17.6476 59.54 17.6476ZM11.96 20.4751H19.3375C19.5 20.4751 19.6625 20.5076 19.7925 20.5401C19.9225 20.6051 20.02 20.7026 20.1175 20.8326C20.735 22.2301 21.45 23.6276 22.1975 25.0251C22.9775 26.4226 23.725 27.7876 24.5375 29.1526C25.3175 30.5176 26.0325 31.8826 26.715 33.2801H26.78C27.4625 31.8501 28.1775 30.4526 28.8925 29.0876C29.6075 27.7226 30.355 26.3576 31.1025 24.9926C31.85 23.6276 32.565 22.2301 33.28 20.8976C33.3125 20.7676 33.3775 20.6376 33.475 20.5726C33.6045 20.5039 33.7534 20.481 33.8975 20.5076H40.755C40.9175 20.4751 41.08 20.5726 41.1125 20.7351C41.145 20.7676 41.08 20.8976 41.015 20.9626L31.265 37.0501L41.665 54.1126C41.73 54.2426 41.7625 54.3726 41.73 54.5026C41.6975 54.6326 41.5675 54.5351 41.3725 54.5676H33.93C33.41 54.5676 33.0525 54.5351 32.825 54.2101C32.1425 52.8451 31.4275 51.5126 30.745 50.1476C30.0625 48.8151 29.315 47.4501 28.535 46.0526C27.755 44.6551 26.975 43.2576 26.195 41.8276H26.13C25.4475 43.2251 24.7 44.6226 23.9525 46.0201C23.205 47.4176 22.4575 48.8151 21.7425 50.1801C20.995 51.5451 20.2475 52.9426 19.5 54.2751C19.37 54.6001 19.11 54.6326 18.7525 54.6326H11.6025C11.4725 54.6326 11.375 54.6976 11.375 54.5351C11.3607 54.4742 11.3591 54.4111 11.3703 54.3496C11.3814 54.2881 11.4052 54.2295 11.44 54.1776L21.5475 37.6026L11.7 20.9301C11.6025 20.8001 11.57 20.6701 11.635 20.6051C11.7 20.5076 11.83 20.4751 11.96 20.4751ZM57.265 34.2226C55.9975 34.2226 54.73 34.4826 53.5925 35.0676C52.4875 35.6201 51.545 36.4326 50.83 37.4726C50.115 38.5126 49.7575 39.9101 49.7575 41.6001C49.725 42.7376 49.92 43.8751 50.31 44.9476C50.635 45.8251 51.1225 46.6051 51.7725 47.2551C52.39 47.8401 53.1375 48.2951 53.9825 48.5551C54.86 48.8476 55.77 48.9776 56.68 48.9776C57.1675 48.9776 57.6225 48.9451 58.045 48.9126C58.4675 48.9451 58.825 48.8801 59.215 48.7501V34.4501C58.576 34.2988 57.9216 34.2224 57.265 34.2226Z" fill="#111111"/>
</svg>
