<?xml version="1.0" standalone="no"?>
<!DOCTYPE svg PUBLIC "-//W3C//DTD SVG 1.0//EN" "http://www.w3.org/TR/2001/REC-SVG-20010904/DTD/svg10.dtd">
<svg xmlns="http://www.w3.org/2000/svg" xmlns:xlink="http://www.w3.org/1999/xlink" id="body_1" width="1000" height="250">

<g transform="matrix(0.6195787 0 0 0.6195787 -0 12.236678)">
	<g>
        <path d="M140.7 182.333C 145.366 182.333 149.033 178.667 149.033 174L149.033 174L149.033 57.3333C 149.033 52.6667 145.366 49 140.7 49L140.7 49L57.3662 49C 52.6995 49 49.0329 52.6667 49.0329 57.3333L49.0329 57.3333L49.0329 174C 49.0329 178.667 52.6995 182.333 57.3662 182.333L57.3662 182.333L140.7 182.333zM49.0329 340.667C 49.0329 345.333 45.3662 349 40.6995 349L40.6995 349L24.0329 349C 19.3662 349 15.6995 345.333 15.6995 340.667L15.6995 340.667L15.6995 24C 15.6995 19.3333 19.3662 15.6667 24.0329 15.6667L24.0329 15.6667L140.7 15.6667C 145.366 15.6667 149.033 19.3333 149.033 24L149.033 24L149.033 40.6667C 149.033 45.3333 152.7 49 157.366 49L157.366 49L174.033 49C 178.7 49 182.366 52.6667 182.366 57.3333L182.366 57.3333L182.366 174C 182.366 178.667 178.7 182.333 174.033 182.333L174.033 182.333L157.366 182.333C 152.7 182.333 149.033 186 149.033 190.667L149.033 190.667L149.033 207.333C 149.033 212 145.366 215.667 140.7 215.667L140.7 215.667L57.3662 215.667C 52.6995 215.667 49.0329 219.333 49.0329 224L49.0329 224L49.0329 340.667zM357.35 315.667C 362.017 315.667 365.683 312 365.683 307.333L365.683 307.333L365.683 157.333C 365.683 152.667 362.017 149 357.35 149L357.35 149L274.017 149C 269.017 149 265.683 152.667 265.683 157.333L265.683 157.333L265.683 307.333C 265.683 312 269.35 315.667 274.017 315.667L274.017 315.667L357.35 315.667zM357.35 349L274.017 349C 269.35 349 265.683 345.333 265.683 340.667L265.683 340.667L265.683 324C 265.683 319.333 262.017 315.667 257.35 315.667L257.35 315.667L240.683 315.667C 236.017 315.667 232.35 312 232.35 307.333L232.35 307.333L232.35 157.333C 232.35 152.667 235.683 149 240.683 149L240.683 149L257.35 149C 262.017 149 265.683 145.333 265.683 140.667L265.683 140.667L265.683 124C 265.683 119.333 269.017 115.667 274.017 115.667L274.017 115.667L357.35 115.667C 362.017 115.667 365.683 119.333 365.683 124L365.683 124L365.683 140.667C 365.683 145.333 369.35 149 374.017 149L374.017 149L390.683 149C 395.35 149 399.017 152.667 399.017 157.333L399.017 157.333L399.017 307.333C 399.017 312 395.35 315.667 390.683 315.667L390.683 315.667L374.017 315.667C 369.017 315.667 365.683 319.333 365.683 324L365.683 324L365.683 340.667C 365.683 345.333 362.017 349 357.35 349zM490.7 349L474.033 349C 469.366 349 465.7 345.333 465.7 340.667L465.7 340.667L465.7 124C 465.7 119.333 469.366 115.667 474.033 115.667L474.033 115.667L490.7 115.667C 495.366 115.667 499.033 119.333 499.033 124L499.033 124L499.033 140.667C 499.033 145.333 502.7 149 507.366 149L507.366 149L524.033 149C 528.7 149 532.366 145.333 532.366 140.667L532.366 140.667L532.366 124C 532.366 119.333 536.033 115.667 540.7 115.667L540.7 115.667L574.033 115.667C 578.7 115.667 582.366 119.333 582.366 124L582.366 124L582.366 140.667C 582.366 145.333 578.7 149 574.033 149L574.033 149L540.7 149C 536.033 149 532.366 152.667 532.366 157.333L532.366 157.333L532.366 174C 532.366 178.667 528.7 182.333 524.033 182.333L524.033 182.333L507.366 182.333C 502.7 182.333 499.033 186 499.033 190.667L499.033 190.667L499.033 340.667C 499.033 345.333 495.366 349 490.7 349zM707.22 349L673.886 349C 669.22 349 665.553 345.333 665.553 340.667L665.553 340.667L665.553 324C 665.553 319.333 661.886 315.667 657.22 315.667L657.22 315.667L640.553 315.667C 635.886 315.667 632.22 312 632.22 307.333L632.22 307.333L632.22 157.333C 632.22 152.667 628.553 149 623.886 149L623.886 149L607.22 149C 602.553 149 598.886 145.333 598.886 140.667L598.886 140.667L598.886 124C 598.886 119.333 602.553 115.667 607.22 115.667L607.22 115.667L623.886 115.667C 628.553 115.667 632.22 112 632.22 107.333L632.22 107.333L632.22 57.3333C 632.22 52.6667 635.886 49 640.553 49L640.553 49L657.22 49C 661.886 49 665.553 52.6667 665.553 57.3333L665.553 57.3333L665.553 107.333C 665.553 112 669.22 115.667 673.886 115.667L673.886 115.667L707.22 115.667C 711.886 115.667 715.553 119.333 715.553 124L715.553 124L715.553 140.667C 715.553 145.333 711.886 149 707.22 149L707.22 149L673.886 149C 669.22 149 665.553 152.667 665.553 157.333L665.553 157.333L665.553 307.333C 665.553 312 669.22 315.667 673.886 315.667L673.886 315.667L707.22 315.667C 711.886 315.667 715.553 319.333 715.553 324L715.553 324L715.553 340.667C 715.553 345.333 711.886 349 707.22 349zM807.073 349L790.407 349C 785.74 349 782.073 345.333 782.073 340.667L782.073 340.667L782.073 157.333C 782.073 152.667 778.407 149 773.74 149L773.74 149L757.073 149C 752.407 149 748.74 145.333 748.74 140.667L748.74 140.667L748.74 124C 748.74 119.333 752.407 115.667 757.073 115.667L757.073 115.667L773.74 115.667C 779.073 115.667 782.073 112 782.073 107.333L782.073 107.333L782.073 57.3333C 782.073 52.6667 785.74 49 790.407 49L790.407 49L807.073 49C 811.74 49 815.407 45.3333 815.407 40.6667L815.407 40.6667L815.407 24C 815.407 19.3333 819.073 15.6667 823.74 15.6667L823.74 15.6667L873.74 15.6667C 878.407 15.6667 882.073 19.3333 882.073 24L882.073 24L882.073 40.6667C 882.073 45.3333 885.74 49 890.407 49L890.407 49L907.073 49C 911.74 49 915.407 52.6667 915.407 57.3333L915.407 57.3333L915.407 74C 915.407 78.6667 912.407 82.3333 907.073 82.3333L907.073 82.3333L890.407 82.3333C 885.74 82.3333 882.073 78.6667 882.073 74L882.073 74L882.073 57.3333C 882.073 52.6667 878.407 49 873.74 49L873.74 49L823.74 49C 819.073 49 815.407 52.6667 815.407 57.3333L815.407 57.3333L815.407 107.333C 815.407 112 819.073 115.667 823.74 115.667L823.74 115.667L873.74 115.667C 878.407 115.667 882.073 119.333 882.073 124L882.073 124L882.073 140.667C 882.073 145.333 879.073 149 873.74 149L873.74 149L823.74 149C 819.073 149 815.407 152.667 815.407 157.333L815.407 157.333L815.407 340.667C 815.407 345.333 812.407 349 807.073 349zM1056.96 315.667C 1061.63 315.667 1065.29 312 1065.29 307.333L1065.29 307.333L1065.29 157.333C 1065.29 152.667 1061.63 149 1056.96 149L1056.96 149L973.626 149C 968.626 149 965.293 152.667 965.293 157.333L965.293 157.333L965.293 307.333C 965.293 312 968.959 315.667 973.626 315.667L973.626 315.667L1056.96 315.667zM1056.96 349L973.626 349C 968.959 349 965.293 345.333 965.293 340.667L965.293 340.667L965.293 324C 965.293 319.333 961.626 315.667 956.959 315.667L956.959 315.667L940.293 315.667C 935.626 315.667 931.959 312 931.959 307.333L931.959 307.333L931.959 157.333C 931.959 152.667 935.293 149 940.293 149L940.293 149L956.959 149C 961.626 149 965.293 145.333 965.293 140.667L965.293 140.667L965.293 124C 965.293 119.333 968.626 115.667 973.626 115.667L973.626 115.667L1056.96 115.667C 1061.63 115.667 1065.29 119.333 1065.29 124L1065.29 124L1065.29 140.667C 1065.29 145.333 1068.96 149 1073.63 149L1073.63 149L1090.29 149C 1094.96 149 1098.63 152.667 1098.63 157.333L1098.63 157.333L1098.63 307.333C 1098.63 312 1094.96 315.667 1090.29 315.667L1090.29 315.667L1073.63 315.667C 1068.63 315.667 1065.29 319.333 1065.29 324L1065.29 324L1065.29 340.667C 1065.29 345.333 1061.63 349 1056.96 349zM1240.31 349L1223.64 349C 1218.98 349 1215.31 345.333 1215.31 340.667L1215.31 340.667L1215.31 324C 1215.31 319.333 1211.64 315.667 1206.98 315.667L1206.98 315.667L1190.31 315.667C 1185.64 315.667 1181.98 312 1181.98 307.333L1181.98 307.333L1181.98 57.3333C 1181.98 52.6667 1178.31 49 1173.64 49L1173.64 49L1156.98 49C 1152.31 49 1148.64 45.3333 1148.64 40.6667L1148.64 40.6667L1148.64 24C 1148.64 19.3333 1152.31 15.6667 1156.98 15.6667L1156.98 15.6667L1206.98 15.6667C 1211.64 15.6667 1215.31 19.3333 1215.31 24L1215.31 24L1215.31 307.333C 1215.31 312 1218.98 315.667 1223.64 315.667L1223.64 315.667L1240.31 315.667C 1244.98 315.667 1248.64 318.667 1248.64 323.333L1248.64 323.333L1248.64 340.667C 1248.64 345.333 1244.98 349 1240.31 349zM1323.46 349C 1318.8 349 1315.13 345.333 1315.13 340.667L1315.13 340.667L1315.13 157.333C 1315.13 152.667 1311.46 149 1306.8 149L1306.8 149L1290.13 149C 1285.46 149 1281.8 145.333 1281.8 140.667L1281.8 140.667L1281.8 124C 1281.8 119.333 1285.46 115.667 1290.13 115.667L1290.13 115.667L1340.13 115.667C 1344.8 115.667 1348.46 119.333 1348.46 124L1348.46 124L1348.46 340.667C 1348.46 345.333 1344.8 349 1340.13 349L1340.13 349L1323.46 349zM1340.13 49L1323.46 49C 1318.8 49 1315.13 45.3333 1315.13 40.6667L1315.13 40.6667L1315.13 24C 1315.13 19.3333 1318.8 15.6667 1323.46 15.6667L1323.46 15.6667L1340.13 15.6667C 1344.8 15.6667 1348.46 19.3333 1348.46 24L1348.46 24L1348.46 40.6667C 1348.46 45.3333 1344.8 49 1340.13 49zM1556.62 315.667C 1561.28 315.667 1564.95 312 1564.95 307.333L1564.95 307.333L1564.95 157.333C 1564.95 152.667 1561.28 149 1556.62 149L1556.62 149L1473.28 149C 1468.28 149 1464.95 152.667 1464.95 157.333L1464.95 157.333L1464.95 307.333C 1464.95 312 1468.62 315.667 1473.28 315.667L1473.28 315.667L1556.62 315.667zM1556.62 349L1473.28 349C 1468.62 349 1464.95 345.333 1464.95 340.667L1464.95 340.667L1464.95 324C 1464.95 319.333 1461.28 315.667 1456.62 315.667L1456.62 315.667L1439.95 315.667C 1435.28 315.667 1431.62 312 1431.62 307.333L1431.62 307.333L1431.62 157.333C 1431.62 152.667 1434.95 149 1439.95 149L1439.95 149L1456.62 149C 1461.28 149 1464.95 145.333 1464.95 140.667L1464.95 140.667L1464.95 124C 1464.95 119.333 1468.28 115.667 1473.28 115.667L1473.28 115.667L1556.62 115.667C 1561.28 115.667 1564.95 119.333 1564.95 124L1564.95 124L1564.95 140.667C 1564.95 145.333 1568.62 149 1573.28 149L1573.28 149L1589.95 149C 1594.62 149 1598.28 152.667 1598.28 157.333L1598.28 157.333L1598.28 307.333C 1598.28 312 1594.62 315.667 1589.95 315.667L1589.95 315.667L1573.28 315.667C 1568.28 315.667 1564.95 319.333 1564.95 324L1564.95 324L1564.95 340.667C 1564.95 345.333 1561.28 349 1556.62 349z" stroke="none" fill="#E7FF69" fill-rule="nonzero" />
	</g>
</g>
</svg>
