<svg width="78" height="78" viewBox="0 0 78 78" fill="none" xmlns="http://www.w3.org/2000/svg">
<g clip-path="url(#clip0_210_554)">
<path d="M60 0H18C8.05887 0 0 8.05887 0 18V60C0 69.9411 8.05887 78 18 78H60C69.9411 78 78 69.9411 78 60V18C78 8.05887 69.9411 0 60 0Z" fill="#1C1C1C"/>
<path d="M20.8851 27L15 23.7253L37.9008 10.5007C39.3337 9.59387 40.7154 10.1229 41.2272 10.5007L64 23.7253L57.4752 27C43.0439 17.1256 27.0688 22.8857 20.8851 27Z" fill="#E7FF69"/>
<path d="M59.2652 29.9226L64.9752 26.5559L65.1548 52.5884C65.2345 54.2567 64.1008 55.1666 63.524 55.413L40.9521 68.165L41.3264 60.9935C56.9189 53.6565 59.7825 37.2224 59.2652 29.9226Z" fill="#E7FF69"/>
<path d="M38.288 61.1625L38.4643 67.7886L15.6087 55.325C14.1109 54.5859 13.8647 53.1532 13.9289 52.5293L13.7188 26.6052L19.8097 30.4093C18.6674 47.6039 31.6525 58.0758 38.288 61.1625Z" fill="#E7FF69"/>
<path d="M39.5 53C46.9558 53 53 46.9558 53 39.5C53 32.0442 46.9558 26 39.5 26C32.0442 26 26 32.0442 26 39.5C26 46.9558 32.0442 53 39.5 53Z" fill="#E7FF69"/>
</g>
<defs>
<clipPath id="clip0_210_554">
<rect width="78" height="78" fill="white"/>
</clipPath>
</defs>
</svg>
