<svg width="78" height="78" viewBox="0 0 78 78" fill="none" xmlns="http://www.w3.org/2000/svg">
<g clip-path="url(#clip0_210_560)">
<path d="M59.7188 0H18.2812C8.18479 0 0 8.18479 0 18.2812V59.7188C0 69.8152 8.18479 78 18.2812 78H59.7188C69.8152 78 78 69.8152 78 59.7188V18.2812C78 8.18479 69.8152 0 59.7188 0Z" fill="#111111"/>
<path d="M28.133 72.1095C33.7393 72.1095 38.2892 67.5596 38.2892 61.9533V51.7969H28.133C22.5268 51.7969 17.9766 56.3471 17.9766 61.9533C17.9766 67.5596 22.5268 72.1095 28.133 72.1095Z" fill="#E7FF69"/>
<path d="M17.9766 39.3048C17.9766 33.6986 22.5268 29.1487 28.133 29.1487H38.2892V49.461H28.133C22.5268 49.461 17.9766 44.9111 17.9766 39.3048Z" fill="#E7FF69"/>
<path d="M17.9766 16.2499C17.9766 10.6436 22.5268 6.09375 28.133 6.09375H38.2892V26.4064H28.133C22.5268 26.4064 17.9766 21.8561 17.9766 16.2499Z" fill="#E7FF69"/>
<path d="M40.5234 6.09375H50.6796C56.2858 6.09375 60.836 10.6436 60.836 16.2499C60.836 21.8561 56.2858 26.4064 50.6796 26.4064H40.5234V6.09375Z" fill="#E7FF69"/>
<path d="M60.9376 39.1019C60.9376 44.7082 56.3874 49.2581 50.7811 49.2581C45.1749 49.2581 40.625 44.7082 40.625 39.1019C40.625 33.4957 45.1749 28.9458 50.7811 28.9458C56.3874 28.9458 60.9376 33.4957 60.9376 39.1019Z" fill="#E7FF69"/>
</g>
<defs>
<clipPath id="clip0_210_560">
<rect width="78" height="78" fill="white"/>
</clipPath>
</defs>
</svg>
