<svg width="1614" height="364" viewBox="0 0 1614 364" fill="none" xmlns="http://www.w3.org/2000/svg">
<g filter="url(#filter0_f_102_9)">
<path d="M140.7 182.333C145.366 182.333 149.033 178.667 149.033 174V57.3333C149.033 52.6667 145.366 49 140.7 49H57.3662C52.6995 49 49.0329 52.6667 49.0329 57.3333V174C49.0329 178.667 52.6995 182.333 57.3662 182.333H140.7ZM49.0329 340.667C49.0329 345.333 45.3662 349 40.6995 349H24.0329C19.3662 349 15.6995 345.333 15.6995 340.667V24C15.6995 19.3333 19.3662 15.6667 24.0329 15.6667H140.7C145.366 15.6667 149.033 19.3333 149.033 24V40.6667C149.033 45.3333 152.7 49 157.366 49H174.033C178.7 49 182.366 52.6667 182.366 57.3333V174C182.366 178.667 178.7 182.333 174.033 182.333H157.366C152.7 182.333 149.033 186 149.033 190.667V207.333C149.033 212 145.366 215.667 140.7 215.667H57.3662C52.6995 215.667 49.0329 219.333 49.0329 224V340.667ZM357.35 315.667C362.017 315.667 365.683 312 365.683 307.333V157.333C365.683 152.667 362.017 149 357.35 149H274.017C269.017 149 265.683 152.667 265.683 157.333V307.333C265.683 312 269.35 315.667 274.017 315.667H357.35ZM357.35 349H274.017C269.35 349 265.683 345.333 265.683 340.667V324C265.683 319.333 262.017 315.667 257.35 315.667H240.683C236.017 315.667 232.35 312 232.35 307.333V157.333C232.35 152.667 235.683 149 240.683 149H257.35C262.017 149 265.683 145.333 265.683 140.667V124C265.683 119.333 269.017 115.667 274.017 115.667H357.35C362.017 115.667 365.683 119.333 365.683 124V140.667C365.683 145.333 369.35 149 374.017 149H390.683C395.35 149 399.017 152.667 399.017 157.333V307.333C399.017 312 395.35 315.667 390.683 315.667H374.017C369.017 315.667 365.683 319.333 365.683 324V340.667C365.683 345.333 362.017 349 357.35 349ZM490.7 349H474.033C469.366 349 465.7 345.333 465.7 340.667V124C465.7 119.333 469.366 115.667 474.033 115.667H490.7C495.366 115.667 499.033 119.333 499.033 124V140.667C499.033 145.333 502.7 149 507.366 149H524.033C528.7 149 532.366 145.333 532.366 140.667V124C532.366 119.333 536.033 115.667 540.7 115.667H574.033C578.7 115.667 582.366 119.333 582.366 124V140.667C582.366 145.333 578.7 149 574.033 149H540.7C536.033 149 532.366 152.667 532.366 157.333V174C532.366 178.667 528.7 182.333 524.033 182.333H507.366C502.7 182.333 499.033 186 499.033 190.667V340.667C499.033 345.333 495.366 349 490.7 349ZM707.22 349H673.886C669.22 349 665.553 345.333 665.553 340.667V324C665.553 319.333 661.886 315.667 657.22 315.667H640.553C635.886 315.667 632.22 312 632.22 307.333V157.333C632.22 152.667 628.553 149 623.886 149H607.22C602.553 149 598.886 145.333 598.886 140.667V124C598.886 119.333 602.553 115.667 607.22 115.667H623.886C628.553 115.667 632.22 112 632.22 107.333V57.3333C632.22 52.6667 635.886 49 640.553 49H657.22C661.886 49 665.553 52.6667 665.553 57.3333V107.333C665.553 112 669.22 115.667 673.886 115.667H707.22C711.886 115.667 715.553 119.333 715.553 124V140.667C715.553 145.333 711.886 149 707.22 149H673.886C669.22 149 665.553 152.667 665.553 157.333V307.333C665.553 312 669.22 315.667 673.886 315.667H707.22C711.886 315.667 715.553 319.333 715.553 324V340.667C715.553 345.333 711.886 349 707.22 349ZM807.073 349H790.407C785.74 349 782.073 345.333 782.073 340.667V157.333C782.073 152.667 778.407 149 773.74 149H757.073C752.407 149 748.74 145.333 748.74 140.667V124C748.74 119.333 752.407 115.667 757.073 115.667H773.74C779.073 115.667 782.073 112 782.073 107.333V57.3333C782.073 52.6667 785.74 49 790.407 49H807.073C811.74 49 815.407 45.3333 815.407 40.6667V24C815.407 19.3333 819.073 15.6667 823.74 15.6667H873.74C878.407 15.6667 882.073 19.3333 882.073 24V40.6667C882.073 45.3333 885.74 49 890.407 49H907.073C911.74 49 915.407 52.6667 915.407 57.3333V74C915.407 78.6667 912.407 82.3333 907.073 82.3333H890.407C885.74 82.3333 882.073 78.6667 882.073 74V57.3333C882.073 52.6667 878.407 49 873.74 49H823.74C819.073 49 815.407 52.6667 815.407 57.3333V107.333C815.407 112 819.073 115.667 823.74 115.667H873.74C878.407 115.667 882.073 119.333 882.073 124V140.667C882.073 145.333 879.073 149 873.74 149H823.74C819.073 149 815.407 152.667 815.407 157.333V340.667C815.407 345.333 812.407 349 807.073 349ZM1056.96 315.667C1061.63 315.667 1065.29 312 1065.29 307.333V157.333C1065.29 152.667 1061.63 149 1056.96 149H973.626C968.626 149 965.293 152.667 965.293 157.333V307.333C965.293 312 968.959 315.667 973.626 315.667H1056.96ZM1056.96 349H973.626C968.959 349 965.293 345.333 965.293 340.667V324C965.293 319.333 961.626 315.667 956.959 315.667H940.293C935.626 315.667 931.959 312 931.959 307.333V157.333C931.959 152.667 935.293 149 940.293 149H956.959C961.626 149 965.293 145.333 965.293 140.667V124C965.293 119.333 968.626 115.667 973.626 115.667H1056.96C1061.63 115.667 1065.29 119.333 1065.29 124V140.667C1065.29 145.333 1068.96 149 1073.63 149H1090.29C1094.96 149 1098.63 152.667 1098.63 157.333V307.333C1098.63 312 1094.96 315.667 1090.29 315.667H1073.63C1068.63 315.667 1065.29 319.333 1065.29 324V340.667C1065.29 345.333 1061.63 349 1056.96 349ZM1240.31 349H1223.64C1218.98 349 1215.31 345.333 1215.31 340.667V324C1215.31 319.333 1211.64 315.667 1206.98 315.667H1190.31C1185.64 315.667 1181.98 312 1181.98 307.333V57.3333C1181.98 52.6667 1178.31 49 1173.64 49H1156.98C1152.31 49 1148.64 45.3333 1148.64 40.6667V24C1148.64 19.3333 1152.31 15.6667 1156.98 15.6667H1206.98C1211.64 15.6667 1215.31 19.3333 1215.31 24V307.333C1215.31 312 1218.98 315.667 1223.64 315.667H1240.31C1244.98 315.667 1248.64 318.667 1248.64 323.333V340.667C1248.64 345.333 1244.98 349 1240.31 349ZM1323.46 349C1318.8 349 1315.13 345.333 1315.13 340.667V157.333C1315.13 152.667 1311.46 149 1306.8 149H1290.13C1285.46 149 1281.8 145.333 1281.8 140.667V124C1281.8 119.333 1285.46 115.667 1290.13 115.667H1340.13C1344.8 115.667 1348.46 119.333 1348.46 124V340.667C1348.46 345.333 1344.8 349 1340.13 349H1323.46ZM1340.13 49H1323.46C1318.8 49 1315.13 45.3333 1315.13 40.6667V24C1315.13 19.3333 1318.8 15.6667 1323.46 15.6667H1340.13C1344.8 15.6667 1348.46 19.3333 1348.46 24V40.6667C1348.46 45.3333 1344.8 49 1340.13 49ZM1556.62 315.667C1561.28 315.667 1564.95 312 1564.95 307.333V157.333C1564.95 152.667 1561.28 149 1556.62 149H1473.28C1468.28 149 1464.95 152.667 1464.95 157.333V307.333C1464.95 312 1468.62 315.667 1473.28 315.667H1556.62ZM1556.62 349H1473.28C1468.62 349 1464.95 345.333 1464.95 340.667V324C1464.95 319.333 1461.28 315.667 1456.62 315.667H1439.95C1435.28 315.667 1431.62 312 1431.62 307.333V157.333C1431.62 152.667 1434.95 149 1439.95 149H1456.62C1461.28 149 1464.95 145.333 1464.95 140.667V124C1464.95 119.333 1468.28 115.667 1473.28 115.667H1556.62C1561.28 115.667 1564.95 119.333 1564.95 124V140.667C1564.95 145.333 1568.62 149 1573.28 149H1589.95C1594.62 149 1598.28 152.667 1598.28 157.333V307.333C1598.28 312 1594.62 315.667 1589.95 315.667H1573.28C1568.28 315.667 1564.95 319.333 1564.95 324V340.667C1564.95 345.333 1561.28 349 1556.62 349Z" fill="#E7FF69"/>
</g>
<defs>
<filter id="filter0_f_102_9" x="0.699539" y="0.666672" width="1612.58" height="363.333" filterUnits="userSpaceOnUse" color-interpolation-filters="sRGB">
<feFlood flood-opacity="0" result="BackgroundImageFix"/>
<feBlend mode="normal" in="SourceGraphic" in2="BackgroundImageFix" result="shape"/>
<feGaussianBlur stdDeviation="7.5" result="effect1_foregroundBlur_102_9"/>
</filter>
</defs>
</svg>
