<svg width="78" height="78" viewBox="0 0 78 78" fill="none" xmlns="http://www.w3.org/2000/svg">
<g clip-path="url(#clip0_210_540)">
<path d="M68 12H10V66H68V12Z" fill="#E7FF69"/>
<path d="M32.0125 27.3651C30.81 26.8776 29.51 26.6826 28.1775 26.7151C27.3325 26.7151 26.585 26.7151 25.9675 26.7476C25.3175 26.7151 24.8625 26.7476 24.635 26.7801V37.7001C25.09 37.7326 25.5125 37.7651 25.9025 37.7651H27.625C28.8925 37.7651 30.16 37.5701 31.3625 37.1801C32.4025 36.8876 33.3125 36.2701 34.0275 35.4576C34.71 34.6451 35.035 33.5401 35.035 32.1101C35.0675 31.1026 34.8075 30.0951 34.2875 29.2176C33.7456 28.3738 32.9486 27.7248 32.0125 27.3651ZM64.1875 0.975098H13.8125C6.175 0.975098 0 7.1501 0 14.7876V63.2093C0 70.8468 6.175 77.0219 13.8125 77.0219H64.1875C71.825 77.0219 78 70.8468 78 63.2093V14.7876C78 7.1501 71.825 0.975098 64.1875 0.975098ZM40.1668 38.8376C38.87 40.6576 37.05 42.0226 34.9375 42.8026C32.7275 43.6151 30.29 43.9076 27.625 43.9076C26.845 43.9076 26.325 43.9076 26 43.8751C25.675 43.8426 25.22 43.8426 24.6025 43.8426V54.2718C24.635 54.4993 24.4725 54.6976 24.245 54.7301H17.94C17.68 54.7301 17.55 54.5968 17.55 54.3043V20.8651C17.55 20.6376 17.6475 20.5076 17.875 20.5076C18.4275 20.5076 18.9475 20.5076 19.695 20.4751C20.475 20.4426 21.2875 20.4426 22.165 20.4101C23.0425 20.3776 23.985 20.3776 24.9925 20.3451C26 20.3126 26.975 20.3126 27.95 20.3126C30.615 20.3126 32.825 20.6376 34.645 21.3201C36.27 21.8726 37.765 22.7826 39 23.9851C40.04 25.0251 40.8525 26.2926 41.3725 27.6901C41.8567 29.0551 42.1167 30.4526 42.1167 31.9151C42.1211 34.7101 41.4711 37.0176 40.1668 38.8376ZM63.2125 51.4801C62.3025 52.7801 61.0317 53.7844 59.5725 54.3759C57.98 55.0551 56.03 55.4093 53.6867 55.4093C52.195 55.4093 50.7293 55.2826 49.27 54.9901C48.1325 54.7919 46.995 54.4376 45.955 53.9501C45.7275 53.8233 45.5617 53.5958 45.5942 53.3358V47.6808C45.5942 47.5866 45.63 47.4533 45.7275 47.3883C45.8218 47.3233 45.9225 47.3558 46.02 47.4208C47.2875 48.1683 48.62 48.6916 50.05 49.0133C51.2817 49.3383 52.5817 49.5008 53.885 49.5008C55.12 49.5008 55.9975 49.3351 56.5825 49.0426C57.1025 48.8151 57.46 48.2626 57.46 47.6776C57.46 47.2193 57.2 46.8001 56.68 46.3776C56.16 45.9583 55.0908 45.4708 53.4983 44.8468C51.8408 44.2618 50.3165 43.4818 48.8833 42.5101C47.8645 41.7837 47.0197 40.8402 46.41 39.7476C45.8937 38.7192 45.6381 37.5797 45.6657 36.4293C45.6657 35.0318 46.0558 33.6993 46.774 32.4968C47.5865 31.1968 48.7858 30.1568 50.1833 29.5068C51.7075 28.7301 53.625 28.3726 55.9325 28.3726C57.265 28.3726 58.63 28.4701 59.9625 28.6651C60.9375 28.7951 61.88 29.0551 62.7575 29.4126C62.8842 29.4451 63.0175 29.5751 63.0825 29.7051C63.115 29.8351 63.1475 29.9651 63.1475 30.0951V35.3926C63.1475 35.5226 63.0825 35.6526 62.985 35.7176C62.6925 35.7826 62.53 35.7826 62.4 35.7176C61.425 35.1976 60.385 34.8401 59.28 34.6126C58.0775 34.3526 56.875 34.1901 55.64 34.1901C54.99 34.1576 54.3075 34.2551 53.6867 34.4176C53.2675 34.5151 52.9067 34.7426 52.6792 35.0676C52.5167 35.3276 52.4193 35.6526 52.4193 35.9451C52.4193 36.2376 52.5492 36.5301 52.7475 36.7901C53.04 37.1476 53.4268 37.4401 53.8525 37.6676C54.5968 38.0576 55.38 38.4151 56.1567 38.7401C57.915 39.3251 59.605 40.1376 61.165 41.1126C62.2375 41.7918 63.115 42.7051 63.7292 43.8101C64.2492 44.8436 64.5093 45.9876 64.4768 47.1543C64.5125 48.6851 64.0575 50.2093 63.2125 51.4801Z" fill="#111111"/>
</g>
<defs>
<clipPath id="clip0_210_540">
<rect width="78" height="78" fill="white"/>
</clipPath>
</defs>
</svg>
